<svg id="attach" xmlns="http://www.w3.org/2000/svg" width="44.529" height="44.529" viewBox="0 0 44.529 44.529">
  <path id="Path_5090" data-name="Path 5090" d="M0,0H44.529V44.529H0Z" fill="none"/>
  <path id="Path_5091" data-name="Path 5091" d="M33.041,24.126H11.7a7.421,7.421,0,0,1,0-14.843H34.9a4.638,4.638,0,1,1,0,9.277H15.415a1.855,1.855,0,1,1,0-3.711H33.041V12.066H15.415a4.638,4.638,0,1,0,0,9.277H34.9A7.421,7.421,0,1,0,34.9,6.5H11.7a10.2,10.2,0,0,0,0,20.409H33.041Z" transform="translate(1.283 5.56)" fill="#fff"/>
</svg>
