<svg id="calender" xmlns="http://www.w3.org/2000/svg" width="51.035" height="51.035" viewBox="0 0 51.035 51.035">
  <path id="Path_6033" data-name="Path 6033" d="M0,0H51.035V51.035H0Z" fill="none"/>
  <path id="Path_6034" data-name="Path 6034" d="M5,5H34.77V9.253H5Z" transform="translate(5.632 5.632)" fill="#fff" opacity="0.3"/>
  <path id="Path_6035" data-name="Path 6035" d="M37.023,5.253H34.9V1H30.644V5.253H13.632V1H9.379V5.253H7.253A4.265,4.265,0,0,0,3,9.506v29.77a4.265,4.265,0,0,0,4.253,4.253h29.77a4.265,4.265,0,0,0,4.253-4.253V9.506A4.265,4.265,0,0,0,37.023,5.253Zm0,34.023H7.253V18.012h29.77Zm0-25.517H7.253V9.506h29.77ZM16.375,36.023l5.189-5.189,5.189,5.189,2.254-2.254L23.818,28.58l5.189-5.189-2.254-2.254-5.189,5.189-5.189-5.189-2.254,2.254L19.31,28.58l-5.189,5.189Z" transform="translate(3.379 1.126)" fill="#fff"/>
</svg>
