<svg xmlns="http://www.w3.org/2000/svg" width="32.868" height="30" viewBox="0 0 32.868 30">
  <g id="pushNotif" opacity="0.5">
    <path id="Path_252" data-name="Path 252" d="M0,0H32.868V30H0Z" fill="none"/>
    <path id="Path_253" data-name="Path 253" d="M12.992,18.737,14.979,20.5l7.047-6.25L14.979,8,12.992,9.762,16.628,13H3v2.5H16.628ZM25.549,3H5.819A2.673,2.673,0,0,0,3,5.5v5H5.819v-5H25.549V23H5.819V18H3v5a2.673,2.673,0,0,0,2.819,2.5H25.549A2.682,2.682,0,0,0,28.368,23V5.5A2.682,2.682,0,0,0,25.549,3Z" transform="translate(0.75 0.75)"/>
  </g>
</svg>
